Paycheck (2003) [BDRip720p][Nautilus-BT]

Join [url]http://www.nautilus-bt.org/[/url]


Link IMDb : [url]http://www.imdb.com/title/tt0338337/[/url]

What seemed like a breezy idea for an engineer to net him millions of dollars, leaves him on the run for his life and piecing together why he's being chased.

[b][color=red]:::->Screenshots<-:::[/color][/b]







Titolo italiano : Paycheck
Titolo originale : Paycheck
Anno : 2003
Genere : fantascienza
Paese : USA
Regia : John Woo
Sceneggiatura : Dean Georgaris
Scenografia : William Sandell

Lingue : Italiano - Inglese
Sottotitoli : Italiano - Inglese
Sottotitoli per non udenti : Inglese
Capitoli : presenti


[code]
General
Complete name                    : Paycheck (2003) [BDRip720p Ita-Eng] by Pitt@Sk8.mkv
Format                           : Matroska
File size                        : 4.38 GiB
Duration                         : 1h 58mn
Overall bit rate                 : 5 276 Kbps
Encoded date                     : UTC 2011-03-22 12:28:00
Writing application              : mkvmerge v4.6.0 ('Still Crazy After All These Years') built on Mar 10 2011 02:50:32
Writing library                  : libebml v1.2.0 + libmatroska v1.1.0

Video
ID                               : 1
Format                           : AVC
Format/Info                      : Advanced Video Codec
Format profile                   : High@L4.1
Format settings, CABAC           : Yes
Format settings, ReFrames        : 3 frames
Codec ID                         : V_MPEG4/ISO/AVC
Duration                         : 1h 58mn
Bit rate mode                    : Variable
Bit rate                         : 4 181 Kbps
Maximum bit rate                 : 40.0 Mbps
Width                            : 1 280 pixels
Height                           : 546 pixels
Display aspect ratio             : 2.35:1
Frame rate                       : 23.976 fps
Color space                      : YUV
Chroma subsampling               : 4:2:0
Bit depth                        : 8 bits
Scan type                        : Progressive
Bits/(Pixel*Frame)               : 0.250
Stream size                      : 3.39 GiB (77%)
Title                            : BDRip720p by Pitt@Sk8
Writing library                  : x264 core 114 r1913 5fd3dce
Encoding settings                : cabac=1 / ref=3 / deblock=1:0:0 / analyse=0x3:0x133 / me=hex / subme=7 / psy=1 / psy_rd=1.00:0.00 / mixed_ref=1 / me_range=16 / chroma_me=1 / trellis=1 / 8x8dct=1 / cqm=0 / deadzone=21,11 / fast_pskip=1 / chroma_qp_offset=-2 / threads=6 / sliced_threads=0 / slices=4 / nr=0 / decimate=1 / interlaced=0 / constrained_intra=0 / bframes=3 / b_pyramid=1 / b_adapt=1 / b_bias=0 / direct=1 / weightb=1 / open_gop=2 / weightp=2 / keyint=240 / keyint_min=23 / scenecut=40 / intra_refresh=0 / rc_lookahead=40 / rc=2pass / mbtree=1 / bitrate=4181 / ratetol=1.0 / qcomp=0.60 / qpmin=10 / qpmax=51 / qpstep=4 / cplxblur=20.0 / qblur=0.5 / vbv_maxrate=40000 / vbv_bufsize=40000 / nal_hrd=vbr / ip_ratio=1.40 / aq=1:1.00

Audio #1
ID                               : 2
Format                           : AC-3
Format/Info                      : Audio Coding 3
Mode extension                   : CM (complete main)
Codec ID                         : A_AC3
Duration                         : 1h 58mn
Bit rate mode                    : Constant
Bit rate                         : 640 Kbps
Channel(s)                       : 6 channels
Channel positions                : Front: L C R, Side: L R, LFE
Sampling rate                    : 48.0 KHz
Bit depth                        : 16 bits
Compression mode                 : Lossy
Stream size                      : 544 MiB (12%)
Title                            : Italian AC3 5.1 640 kbps - Pitt@Sk8
Language                         : Italian

Audio #2
ID                               : 3
Format                           : AC-3
Format/Info                      : Audio Coding 3
Mode extension                   : CM (complete main)
Codec ID                         : A_AC3
Duration                         : 1h 58mn
Bit rate mode                    : Constant
Bit rate                         : 448 Kbps
Channel(s)                       : 6 channels
Channel positions                : Front: L C R, Side: L R, LFE
Sampling rate                    : 48.0 KHz
Bit depth                        : 16 bits
Compression mode                 : Lossy
Stream size                      : 381 MiB (8%)
Title                            : English AC3 5.1 448 kbps - Pitt@Sk8
Language                         : English

Text #1
ID                               : 4
Format                           : UTF-8
Codec ID                         : S_TEXT/UTF8
Codec ID/Info                    : UTF-8 Plain Text
Title                            : Vuoto - Pitt@Sk8
Language                         : Italian

Text #2
ID                               : 5
Format                           : VobSub
Muxing mode                      : zlib
Codec ID                         : S_VOBSUB
Codec ID/Info                    : The same subtitle format used on DVDs
Title                            : Sottotitoli - Italiano
Language                         : Italian

Text #3
ID                               : 6
Format                           : VobSub
Muxing mode                      : zlib
Codec ID                         : S_VOBSUB
Codec ID/Info                    : The same subtitle format used on DVDs
Title                            : Subtitle - English
Language                         : English

Text #4
ID                               : 7
Format                           : VobSub
Muxing mode                      : zlib
Codec ID                         : S_VOBSUB
Codec ID/Info                    : The same subtitle format used on DVDs
Title                            : Subtitle - English [deaf]
Language                         : English

Menu
00:00:00.000                     : en:01
00:06:33.518                     : en:02
00:09:28.109                     : en:03
00:12:03.431                     : en:04
00:15:07.740                     : en:05
00:18:15.135                     : en:06
00:25:13.887                     : en:07
00:29:32.353                     : en:08
00:34:15.386                     : en:09
00:40:01.899                     : en:10
00:43:32.610                     : en:11
00:47:51.869                     : en:12
00:57:11.302                     : en:13
01:00:26.497                     : en:14
01:06:05.169                     : en:15
01:10:56.585                     : en:16
01:17:42.949                     : en:17
01:20:41.795                     : en:18
01:25:46.182                     : en:19
01:32:33.172                     : en:20
01:39:58.575                     : en:21
01:50:29.622                     : en:22
[/code]

Join [url]http://www.nautilus-bt.org/[/url]
